<?xml version="1.0" encoding="UTF-8" standalone="no"?><svg xmlns="http://www.w3.org/2000/svg" xmlns:xlink="http://www.w3.org/1999/xlink" clip-rule="evenodd" stroke-miterlimit="4.00" viewBox="0 0 1024 768"><desc>SVG generated by Keynote</desc><defs></defs><g transform="matrix(1.00, 0.00, -0.00, -1.00, 0.0, 768.0)"><path d="M 0.0 768.0 L 1024.0 768.0 L 1024.0 0.0 L 0.0 0.0 Z M 0.0 768.0 " fill="#FFFFFF"></path><path d="M 0.0 0.0 L 960.0 0.0 " fill="none" stroke="#A6AAA9" stroke-width="2.00" transform="matrix(1.00, 0.00, 0.00, -1.00, 32.0, 689.8)"></path><text xml:space="preserve" font-family="DINAlternate-Bold" font-weight="bold" font-size="24.0" fill="#838686" transform="matrix(1.00, 0.00, -0.00, -1.00, 36.0, 705.0)">T</text><text xml:space="preserve" font-family="DINAlternate-Bold" font-weight="bold" font-size="24.0" fill="#838686" transform="matrix(1.00, 0.00, -0.00, -1.00, 49.2, 705.0)">E</text><text xml:space="preserve" font-family="DINAlternate-Bold" font-weight="bold" font-size="24.0" fill="#838686" transform="matrix(1.00, 0.00, -0.00, -1.00, 63.7, 705.0)">X</text><text xml:space="preserve" font-family="DINAlternate-Bold" font-weight="bold" font-size="24.0" fill="#838686" transform="matrix(1.00, 0.00, -0.00, -1.00, 77.8, 705.0)">T</text><text xml:space="preserve" font-family="DINCondensed-Bold" font-weight="bold" font-size="48.0" fill="#34A4DA" transform="matrix(1.00, 0.00, -0.00, -1.00, 36.0, 608.0)">F</text><text xml:space="preserve" font-family="DINCondensed-Bold" font-weight="bold" font-size="48.0" fill="#34A4DA" transform="matrix(1.00, 0.00, -0.00, -1.00, 53.8, 608.0)">L</text><text xml:space="preserve" font-family="DINCondensed-Bold" font-weight="bold" font-size="48.0" fill="#34A4DA" transform="matrix(1.00, 0.00, -0.00, -1.00, 71.5, 608.0)">E</text><text xml:space="preserve" font-family="DINCondensed-Bold" font-weight="bold" font-size="48.0" fill="#34A4DA" transform="matrix(1.00, 0.00, -0.00, -1.00, 89.3, 608.0)">X</text><text xml:space="preserve" font-family="DINCondensed-Bold" font-weight="bold" font-size="48.0" fill="#34A4DA" transform="matrix(1.00, 0.00, -0.00, -1.00, 108.0, 608.0)">B</text><text xml:space="preserve" font-family="DINCondensed-Bold" font-weight="bold" font-size="48.0" fill="#34A4DA" transform="matrix(1.00, 0.00, -0.00, -1.00, 128.4, 608.0)">O</text><text xml:space="preserve" font-family="DINCondensed-Bold" font-weight="bold" font-size="48.0" fill="#34A4DA" transform="matrix(1.00, 0.00, -0.00, -1.00, 148.8, 608.0)">X</text><text xml:space="preserve" font-family="LucidaGrande" font-size="35.7" fill="#34A4DA" transform="matrix(1.00, 0.00, -0.00, -1.00, 36.0, 511.0)">▸</text><text xml:space="preserve" font-family="AvenirNext-Medium" font-size="34.0" fill="#34A4DA" transform="matrix(1.00, 0.00, -0.00, -1.00, 71.0, 514.0)">h</text><text xml:space="preserve" font-family="AvenirNext-Medium" font-size="34.0" fill="#34A4DA" transform="matrix(1.00, 0.00, -0.00, -1.00, 90.9, 514.0)">t</text><text xml:space="preserve" font-family="AvenirNext-Medium" font-size="34.0" fill="#34A4DA" transform="matrix(1.00, 0.00, -0.00, -1.00, 101.5, 514.0)">t</text><text xml:space="preserve" font-family="AvenirNext-Medium" font-size="34.0" fill="#34A4DA" transform="matrix(1.00, 0.00, -0.00, -1.00, 112.7, 514.0)">p</text><text xml:space="preserve" font-family="AvenirNext-Medium" font-size="34.0" fill="#34A4DA" transform="matrix(1.00, 0.00, -0.00, -1.00, 134.3, 514.0)">s</text><text xml:space="preserve" font-family="AvenirNext-Medium" font-size="34.0" fill="#34A4DA" transform="matrix(1.00, 0.00, -0.00, -1.00, 149.4, 514.0)">:</text><text xml:space="preserve" font-family="AvenirNext-Medium" font-size="34.0" fill="#34A4DA" transform="matrix(1.00, 0.00, -0.00, -1.00, 159.6, 514.0)">/</text><text xml:space="preserve" font-family="AvenirNext-Medium" font-size="34.0" fill="#34A4DA" transform="matrix(1.00, 0.00, -0.00, -1.00, 172.5, 514.0)">/</text><text xml:space="preserve" font-family="AvenirNext-Medium" font-size="34.0" fill="#34A4DA" transform="matrix(1.00, 0.00, -0.00, -1.00, 185.4, 514.0)">c</text><text xml:space="preserve" font-family="AvenirNext-Medium" font-size="34.0" fill="#34A4DA" transform="matrix(1.00, 0.00, -0.00, -1.00, 202.2, 514.0)">s</text><text xml:space="preserve" font-family="AvenirNext-Medium" font-size="34.0" fill="#34A4DA" transform="matrix(1.00, 0.00, -0.00, -1.00, 217.3, 514.0)">s</text><text xml:space="preserve" font-family="AvenirNext-Medium" font-size="34.0" fill="#34A4DA" transform="matrix(1.00, 0.00, -0.00, -1.00, 232.4, 514.0)">-</text><text xml:space="preserve" font-family="AvenirNext-Medium" font-size="34.0" fill="#34A4DA" transform="matrix(1.00, 0.00, -0.00, -1.00, 243.3, 514.0)">t</text><text xml:space="preserve" font-family="AvenirNext-Medium" font-size="34.0" fill="#34A4DA" transform="matrix(1.00, 0.00, -0.00, -1.00, 254.5, 514.0)">r</text><text xml:space="preserve" font-family="AvenirNext-Medium" font-size="34.0" fill="#34A4DA" transform="matrix(1.00, 0.00, -0.00, -1.00, 266.8, 514.0)">i</text><text xml:space="preserve" font-family="AvenirNext-Medium" font-size="34.0" fill="#34A4DA" transform="matrix(1.00, 0.00, -0.00, -1.00, 275.6, 514.0)">c</text><text xml:space="preserve" font-family="AvenirNext-Medium" font-size="34.0" fill="#34A4DA" transform="matrix(1.00, 0.00, -0.00, -1.00, 292.4, 514.0)">k</text><text xml:space="preserve" font-family="AvenirNext-Medium" font-size="34.0" fill="#34A4DA" transform="matrix(1.00, 0.00, -0.00, -1.00, 310.1, 514.0)">s</text><text xml:space="preserve" font-family="AvenirNext-Medium" font-size="34.0" fill="#34A4DA" transform="matrix(1.00, 0.00, -0.00, -1.00, 325.2, 514.0)">.</text><text xml:space="preserve" font-family="AvenirNext-Medium" font-size="34.0" fill="#34A4DA" transform="matrix(1.00, 0.00, -0.00, -1.00, 334.0, 514.0)">c</text><text xml:space="preserve" font-family="AvenirNext-Medium" font-size="34.0" fill="#34A4DA" transform="matrix(1.00, 0.00, -0.00, -1.00, 350.8, 514.0)">o</text><text xml:space="preserve" font-family="AvenirNext-Medium" font-size="34.0" fill="#34A4DA" transform="matrix(1.00, 0.00, -0.00, -1.00, 371.6, 514.0)">m</text><text xml:space="preserve" font-family="AvenirNext-Medium" font-size="34.0" fill="#34A4DA" transform="matrix(1.00, 0.00, -0.00, -1.00, 401.7, 514.0)">/</text><text xml:space="preserve" font-family="AvenirNext-Medium" font-size="34.0" fill="#34A4DA" transform="matrix(1.00, 0.00, -0.00, -1.00, 414.6, 514.0)">s</text><text xml:space="preserve" font-family="AvenirNext-Medium" font-size="34.0" fill="#34A4DA" transform="matrix(1.00, 0.00, -0.00, -1.00, 429.7, 514.0)">n</text><text xml:space="preserve" font-family="AvenirNext-Medium" font-size="34.0" fill="#34A4DA" transform="matrix(1.00, 0.00, -0.00, -1.00, 449.5, 514.0)">i</text><text xml:space="preserve" font-family="AvenirNext-Medium" font-size="34.0" fill="#34A4DA" transform="matrix(1.00, 0.00, -0.00, -1.00, 458.3, 514.0)">p</text><text xml:space="preserve" font-family="AvenirNext-Medium" font-size="34.0" fill="#34A4DA" transform="matrix(1.00, 0.00, -0.00, -1.00, 479.9, 514.0)">p</text><text xml:space="preserve" font-family="AvenirNext-Medium" font-size="34.0" fill="#34A4DA" transform="matrix(1.00, 0.00, -0.00, -1.00, 501.4, 514.0)">e</text><text xml:space="preserve" font-family="AvenirNext-Medium" font-size="34.0" fill="#34A4DA" transform="matrix(1.00, 0.00, -0.00, -1.00, 520.9, 514.0)">t</text><text xml:space="preserve" font-family="AvenirNext-Medium" font-size="34.0" fill="#34A4DA" transform="matrix(1.00, 0.00, -0.00, -1.00, 532.1, 514.0)">s</text><text xml:space="preserve" font-family="AvenirNext-Medium" font-size="34.0" fill="#34A4DA" transform="matrix(1.00, 0.00, -0.00, -1.00, 547.2, 514.0)">/</text><text xml:space="preserve" font-family="AvenirNext-Medium" font-size="34.0" fill="#34A4DA" transform="matrix(1.00, 0.00, -0.00, -1.00, 560.1, 514.0)">c</text><text xml:space="preserve" font-family="AvenirNext-Medium" font-size="34.0" fill="#34A4DA" transform="matrix(1.00, 0.00, -0.00, -1.00, 576.9, 514.0)">s</text><text xml:space="preserve" font-family="AvenirNext-Medium" font-size="34.0" fill="#34A4DA" transform="matrix(1.00, 0.00, -0.00, -1.00, 592.0, 514.0)">s</text><text xml:space="preserve" font-family="AvenirNext-Medium" font-size="34.0" fill="#34A4DA" transform="matrix(1.00, 0.00, -0.00, -1.00, 607.1, 514.0)">/</text><text xml:space="preserve" font-family="AvenirNext-Medium" font-size="34.0" fill="#34A4DA" transform="matrix(1.00, 0.00, -0.00, -1.00, 620.0, 514.0)">a</text><text xml:space="preserve" font-family="AvenirNext-Medium" font-size="34.0" fill="#34A4DA" transform="matrix(1.00, 0.00, -0.00, -1.00, 638.5, 514.0)">-</text><text xml:space="preserve" font-family="AvenirNext-Medium" font-size="34.0" fill="#34A4DA" transform="matrix(1.00, 0.00, -0.00, -1.00, 649.3, 514.0)">g</text><text xml:space="preserve" font-family="AvenirNext-Medium" font-size="34.0" fill="#34A4DA" transform="matrix(1.00, 0.00, -0.00, -1.00, 670.8, 514.0)">u</text><text xml:space="preserve" font-family="AvenirNext-Medium" font-size="34.0" fill="#34A4DA" transform="matrix(1.00, 0.00, -0.00, -1.00, 690.6, 514.0)">i</text><text xml:space="preserve" font-family="AvenirNext-Medium" font-size="34.0" fill="#34A4DA" transform="matrix(1.00, 0.00, -0.00, -1.00, 699.4, 514.0)">d</text><text xml:space="preserve" font-family="AvenirNext-Medium" font-size="34.0" fill="#34A4DA" transform="matrix(1.00, 0.00, -0.00, -1.00, 721.0, 514.0)">e</text><text xml:space="preserve" font-family="AvenirNext-Medium" font-size="34.0" fill="#34A4DA" transform="matrix(1.00, 0.00, -0.00, -1.00, 740.5, 514.0)">-</text><text xml:space="preserve" font-family="AvenirNext-Medium" font-size="34.0" fill="#34A4DA" transform="matrix(1.00, 0.00, -0.00, -1.00, 751.4, 514.0)">t</text><text xml:space="preserve" font-family="AvenirNext-Medium" font-size="34.0" fill="#34A4DA" transform="matrix(1.00, 0.00, -0.00, -1.00, 762.6, 514.0)">o</text><text xml:space="preserve" font-family="AvenirNext-Medium" font-size="34.0" fill="#34A4DA" transform="matrix(1.00, 0.00, -0.00, -1.00, 783.3, 514.0)">-</text><text xml:space="preserve" font-family="AvenirNext-Medium" font-size="34.0" fill="#34A4DA" transform="matrix(1.00, 0.00, -0.00, -1.00, 794.2, 514.0)">ﬂ</text><text xml:space="preserve" font-family="AvenirNext-Medium" font-size="34.0" fill="#34A4DA" transform="matrix(1.00, 0.00, -0.00, -1.00, 813.7, 514.0)">e</text><text xml:space="preserve" font-family="AvenirNext-Medium" font-size="34.0" fill="#34A4DA" transform="matrix(1.00, 0.00, -0.00, -1.00, 832.8, 514.0)">x</text><text xml:space="preserve" font-family="AvenirNext-Medium" font-size="34.0" fill="#34A4DA" transform="matrix(1.00, 0.00, -0.00, -1.00, 850.2, 514.0)">b</text><text xml:space="preserve" font-family="AvenirNext-Medium" font-size="34.0" fill="#34A4DA" transform="matrix(1.00, 0.00, -0.00, -1.00, 871.8, 514.0)">o</text><text xml:space="preserve" font-family="AvenirNext-Medium" font-size="34.0" fill="#34A4DA" transform="matrix(1.00, 0.00, -0.00, -1.00, 892.2, 514.0)">x</text><text xml:space="preserve" font-family="AvenirNext-Medium" font-size="34.0" fill="#34A4DA" transform="matrix(1.00, 0.00, -0.00, -1.00, 909.6, 514.0)">/</text><text xml:space="preserve" font-family="AvenirNext-Medium" font-size="34.0" fill="#838686" transform="matrix(1.00, 0.00, -0.00, -1.00, 922.5, 514.0)"> </text><g><clipPath id="clip-11"><path d="M 70.0 510.0 L 922.5 510.0 L 922.5 513.7 L 70.0 513.7 Z M 70.0 510.0 "></path></clipPath><g clip-path="url(#clip-11)"><path d="M 39.0 40.1 L 890.5 40.1 " fill="none" stroke="#34A4DA" stroke-width="1.70" stroke-miterlimit="0.00" transform="matrix(1.00, 0.00, 0.00, -1.00, 32.0, 552.0)"></path></g></g><text xml:space="preserve" font-family="DINCondensed-Bold" font-weight="bold" font-size="100.0" fill="#C82506" transform="matrix(1.00, 0.00, -0.00, -1.00, 493.0, 363.0)">T</text><text xml:space="preserve" font-family="DINCondensed-Bold" font-weight="bold" font-size="100.0" fill="#C82506" transform="matrix(1.00, 0.00, -0.00, -1.00, 525.0, 363.0)">O</text><text xml:space="preserve" font-family="DINCondensed-Bold" font-weight="bold" font-size="100.0" fill="#C82506" transform="matrix(1.00, 0.00, -0.00, -1.00, 567.6, 363.0)">D</text><text xml:space="preserve" font-family="DINCondensed-Bold" font-weight="bold" font-size="100.0" fill="#C82506" transform="matrix(1.00, 0.00, -0.00, -1.00, 610.2, 363.0)">O</text></g></svg>