<?xml version="1.0" encoding="UTF-8" standalone="no"?><svg xmlns="http://www.w3.org/2000/svg" xmlns:xlink="http://www.w3.org/1999/xlink" clip-rule="evenodd" stroke-miterlimit="4.00" viewBox="0 0 1024 768"><desc>SVG generated by Keynote</desc><defs></defs><g transform="matrix(1.00, 0.00, -0.00, -1.00, 0.0, 768.0)"><path d="M 0.0 768.0 L 1024.0 768.0 L 1024.0 0.0 L 0.0 0.0 Z M 0.0 768.0 " fill="#212121"></path><path d="M 0.0 0.0 L 960.0 0.0 " fill="none" stroke="#A6AAA9" stroke-width="2.00" transform="matrix(1.00, 0.00, 0.00, -1.00, 32.0, 689.8)"></path><text xml:space="preserve" font-family="DINAlternate-Bold" font-weight="bold" font-size="24.0" fill="#838686" transform="matrix(1.00, 0.00, -0.00, -1.00, 36.0, 705.0)">K</text><text xml:space="preserve" font-family="DINAlternate-Bold" font-weight="bold" font-size="24.0" fill="#838686" transform="matrix(1.00, 0.00, -0.00, -1.00, 52.3, 705.0)">I</text><text xml:space="preserve" font-family="DINAlternate-Bold" font-weight="bold" font-size="24.0" fill="#838686" transform="matrix(1.00, 0.00, -0.00, -1.00, 59.7, 705.0)">C</text><text xml:space="preserve" font-family="DINAlternate-Bold" font-weight="bold" font-size="24.0" fill="#838686" transform="matrix(1.00, 0.00, -0.00, -1.00, 74.2, 705.0)">K</text><text xml:space="preserve" font-family="DINAlternate-Bold" font-weight="bold" font-size="24.0" fill="#838686" transform="matrix(1.00, 0.00, -0.00, -1.00, 90.0, 705.0)">O</text><text xml:space="preserve" font-family="DINAlternate-Bold" font-weight="bold" font-size="24.0" fill="#838686" transform="matrix(1.00, 0.00, -0.00, -1.00, 105.8, 705.0)">U</text><text xml:space="preserve" font-family="DINAlternate-Bold" font-weight="bold" font-size="24.0" fill="#838686" transform="matrix(1.00, 0.00, -0.00, -1.00, 122.1, 705.0)">T</text><text xml:space="preserve" font-family="DINCondensed-Bold" font-weight="bold" font-size="48.0" fill="#34A4DA" transform="matrix(1.00, 0.00, -0.00, -1.00, 36.0, 608.0)">F</text><text xml:space="preserve" font-family="DINCondensed-Bold" font-weight="bold" font-size="48.0" fill="#34A4DA" transform="matrix(1.00, 0.00, -0.00, -1.00, 53.8, 608.0)">R</text><text xml:space="preserve" font-family="DINCondensed-Bold" font-weight="bold" font-size="48.0" fill="#34A4DA" transform="matrix(1.00, 0.00, -0.00, -1.00, 74.2, 608.0)">A</text><text xml:space="preserve" font-family="DINCondensed-Bold" font-weight="bold" font-size="48.0" fill="#34A4DA" transform="matrix(1.00, 0.00, -0.00, -1.00, 93.7, 608.0)">G</text><text xml:space="preserve" font-family="DINCondensed-Bold" font-weight="bold" font-size="48.0" fill="#34A4DA" transform="matrix(1.00, 0.00, -0.00, -1.00, 114.2, 608.0)">E</text><text xml:space="preserve" font-family="DINCondensed-Bold" font-weight="bold" font-size="48.0" fill="#34A4DA" transform="matrix(1.00, 0.00, -0.00, -1.00, 132.0, 608.0)">N</text><text xml:space="preserve" font-family="DINCondensed-Bold" font-weight="bold" font-size="48.0" fill="#34A4DA" transform="matrix(1.00, 0.00, -0.00, -1.00, 153.3, 608.0)">?</text><text xml:space="preserve" font-family="LucidaGrande" font-size="35.7" fill="#34A4DA" transform="matrix(1.00, 0.00, -0.00, -1.00, 36.0, 511.0)">▸</text><text xml:space="preserve" font-family="AvenirNext-Medium" font-size="34.0" fill="#838686" transform="matrix(1.00, 0.00, -0.00, -1.00, 71.0, 514.0)">R</text><text xml:space="preserve" font-family="AvenirNext-Medium" font-size="34.0" fill="#838686" transform="matrix(1.00, 0.00, -0.00, -1.00, 91.5, 514.0)">o</text><text xml:space="preserve" font-family="AvenirNext-Medium" font-size="34.0" fill="#838686" transform="matrix(1.00, 0.00, -0.00, -1.00, 112.2, 514.0)">n</text><text xml:space="preserve" font-family="AvenirNext-Medium" font-size="34.0" fill="#838686" transform="matrix(1.00, 0.00, -0.00, -1.00, 132.0, 514.0)">n</text><text xml:space="preserve" font-family="AvenirNext-Medium" font-size="34.0" fill="#838686" transform="matrix(1.00, 0.00, -0.00, -1.00, 151.8, 514.0)">y</text><text xml:space="preserve" font-family="AvenirNext-Medium" font-size="34.0" fill="#838686" transform="matrix(1.00, 0.00, -0.00, -1.00, 168.9, 514.0)"> </text><text xml:space="preserve" font-family="AvenirNext-Medium" font-size="34.0" fill="#838686" transform="matrix(1.00, 0.00, -0.00, -1.00, 177.4, 514.0)">H</text><text xml:space="preserve" font-family="AvenirNext-Medium" font-size="34.0" fill="#838686" transform="matrix(1.00, 0.00, -0.00, -1.00, 202.2, 514.0)">a</text><text xml:space="preserve" font-family="AvenirNext-Medium" font-size="34.0" fill="#838686" transform="matrix(1.00, 0.00, -0.00, -1.00, 220.6, 514.0)">r</text><text xml:space="preserve" font-family="AvenirNext-Medium" font-size="34.0" fill="#838686" transform="matrix(1.00, 0.00, -0.00, -1.00, 232.5, 514.0)">t</text><text xml:space="preserve" font-family="AvenirNext-Medium" font-size="34.0" fill="#838686" transform="matrix(1.00, 0.00, -0.00, -1.00, 243.7, 514.0)">e</text><text xml:space="preserve" font-family="AvenirNext-Medium" font-size="34.0" fill="#838686" transform="matrix(1.00, 0.00, -0.00, -1.00, 263.2, 514.0)">n</text><text xml:space="preserve" font-family="AvenirNext-Medium" font-size="34.0" fill="#838686" transform="matrix(1.00, 0.00, -0.00, -1.00, 283.0, 514.0)">s</text><text xml:space="preserve" font-family="AvenirNext-Medium" font-size="34.0" fill="#838686" transform="matrix(1.00, 0.00, -0.00, -1.00, 298.1, 514.0)">t</text><text xml:space="preserve" font-family="AvenirNext-Medium" font-size="34.0" fill="#838686" transform="matrix(1.00, 0.00, -0.00, -1.00, 309.3, 514.0)">e</text><text xml:space="preserve" font-family="AvenirNext-Medium" font-size="34.0" fill="#838686" transform="matrix(1.00, 0.00, -0.00, -1.00, 328.8, 514.0)">i</text><text xml:space="preserve" font-family="AvenirNext-Medium" font-size="34.0" fill="#838686" transform="matrix(1.00, 0.00, -0.00, -1.00, 337.6, 514.0)">n</text><text xml:space="preserve" font-family="AvenirNext-Medium" font-size="34.0" fill="#838686" transform="matrix(1.00, 0.00, -0.00, -1.00, 357.3, 514.0)"> </text><text xml:space="preserve" font-family="AvenirNext-Medium" font-size="34.0" fill="#838686" transform="matrix(1.00, 0.00, -0.00, -1.00, 365.8, 514.0)"> </text><text xml:space="preserve" font-family="AvenirNext-Medium" font-size="34.0" fill="#838686" transform="matrix(1.00, 0.00, -0.00, -1.00, 374.3, 514.0)"> </text><text xml:space="preserve" font-family="AvenirNext-Medium" font-size="34.0" fill="#838686" transform="matrix(1.00, 0.00, -0.00, -1.00, 382.8, 514.0)"> </text><text xml:space="preserve" font-family="AvenirNext-Medium" font-size="34.0" fill="#838686" transform="matrix(1.00, 0.00, -0.00, -1.00, 391.3, 514.0)"> </text><text xml:space="preserve" font-family="LucidaGrande" font-size="35.7" fill="#34A4DA" transform="matrix(1.00, 0.00, -0.00, -1.00, 36.0, 437.0)">▸</text><text xml:space="preserve" font-family="AvenirNext-Medium" font-size="34.0" fill="#838686" transform="matrix(1.00, 0.00, -0.00, -1.00, 71.0, 440.0)">T</text><text xml:space="preserve" font-family="AvenirNext-Medium" font-size="34.0" fill="#838686" transform="matrix(1.00, 0.00, -0.00, -1.00, 87.1, 440.0)">w</text><text xml:space="preserve" font-family="AvenirNext-Medium" font-size="34.0" fill="#838686" transform="matrix(1.00, 0.00, -0.00, -1.00, 113.4, 440.0)">i</text><text xml:space="preserve" font-family="AvenirNext-Medium" font-size="34.0" fill="#838686" transform="matrix(1.00, 0.00, -0.00, -1.00, 122.2, 440.0)">t</text><text xml:space="preserve" font-family="AvenirNext-Medium" font-size="34.0" fill="#838686" transform="matrix(1.00, 0.00, -0.00, -1.00, 132.8, 440.0)">t</text><text xml:space="preserve" font-family="AvenirNext-Medium" font-size="34.0" fill="#838686" transform="matrix(1.00, 0.00, -0.00, -1.00, 144.0, 440.0)">e</text><text xml:space="preserve" font-family="AvenirNext-Medium" font-size="34.0" fill="#838686" transform="matrix(1.00, 0.00, -0.00, -1.00, 163.5, 440.0)">r</text><text xml:space="preserve" font-family="AvenirNext-Medium" font-size="34.0" fill="#838686" transform="matrix(1.00, 0.00, -0.00, -1.00, 175.8, 440.0)">:</text><text xml:space="preserve" font-family="AvenirNext-Medium" font-size="34.0" fill="#838686" transform="matrix(1.00, 0.00, -0.00, -1.00, 186.0, 440.0)"> </text><text xml:space="preserve" font-family="AvenirNext-Medium" font-size="34.0" fill="#34A4DA" transform="matrix(1.00, 0.00, -0.00, -1.00, 194.5, 440.0)">@</text><text xml:space="preserve" font-family="AvenirNext-Medium" font-size="34.0" fill="#34A4DA" transform="matrix(1.00, 0.00, -0.00, -1.00, 221.7, 440.0)">r</text><text xml:space="preserve" font-family="AvenirNext-Medium" font-size="34.0" fill="#34A4DA" transform="matrix(1.00, 0.00, -0.00, -1.00, 234.0, 440.0)">h</text><text xml:space="preserve" font-family="AvenirNext-Medium" font-size="34.0" fill="#34A4DA" transform="matrix(1.00, 0.00, -0.00, -1.00, 253.9, 440.0)">ﬂ</text><text xml:space="preserve" font-family="AvenirNext-Medium" font-size="34.0" fill="#34A4DA" transform="matrix(1.00, 0.00, -0.00, -1.00, 273.4, 440.0)">o</text><text xml:space="preserve" font-family="AvenirNext-Medium" font-size="34.0" fill="#34A4DA" transform="matrix(1.00, 0.00, -0.00, -1.00, 294.1, 440.0)">w</text><text xml:space="preserve" font-family="AvenirNext-Medium" font-size="34.0" fill="#34A4DA" transform="matrix(1.00, 0.00, -0.00, -1.00, 320.4, 440.0)">_</text><text xml:space="preserve" font-family="AvenirNext-Medium" font-size="34.0" fill="#34A4DA" transform="matrix(1.00, 0.00, -0.00, -1.00, 337.4, 440.0)">d</text><text xml:space="preserve" font-family="AvenirNext-Medium" font-size="34.0" fill="#34A4DA" transform="matrix(1.00, 0.00, -0.00, -1.00, 359.0, 440.0)">e</text><text xml:space="preserve" font-family="AvenirNext-Medium" font-size="34.0" fill="#838686" transform="matrix(1.00, 0.00, -0.00, -1.00, 378.5, 440.0)"> </text><text xml:space="preserve" font-family="AvenirNext-Medium" font-size="34.0" fill="#838686" transform="matrix(1.00, 0.00, -0.00, -1.00, 387.0, 440.0)"> </text><g><clipPath id="clip-10"><path d="M 193.5 436.0 L 378.5 436.0 L 378.5 439.7 L 193.5 439.7 Z M 193.5 436.0 "></path></clipPath><g clip-path="url(#clip-10)"><path d="M 162.5 114.1 L 346.5 114.1 " fill="none" stroke="#34A4DA" stroke-width="1.70" stroke-miterlimit="0.00" transform="matrix(1.00, 0.00, 0.00, -1.00, 32.0, 552.0)"></path></g></g><text xml:space="preserve" font-family="LucidaGrande" font-size="35.7" fill="#34A4DA" transform="matrix(1.00, 0.00, -0.00, -1.00, 36.0, 363.0)">▸</text><text xml:space="preserve" font-family="AvenirNext-Medium" font-size="34.0" fill="#838686" transform="matrix(1.00, 0.00, -0.00, -1.00, 71.0, 366.0)">G</text><text xml:space="preserve" font-family="AvenirNext-Medium" font-size="34.0" fill="#838686" transform="matrix(1.00, 0.00, -0.00, -1.00, 97.5, 366.0)">i</text><text xml:space="preserve" font-family="AvenirNext-Medium" font-size="34.0" fill="#838686" transform="matrix(1.00, 0.00, -0.00, -1.00, 106.3, 366.0)">t</text><text xml:space="preserve" font-family="AvenirNext-Medium" font-size="34.0" fill="#838686" transform="matrix(1.00, 0.00, -0.00, -1.00, 117.4, 366.0)">H</text><text xml:space="preserve" font-family="AvenirNext-Medium" font-size="34.0" fill="#838686" transform="matrix(1.00, 0.00, -0.00, -1.00, 142.2, 366.0)">u</text><text xml:space="preserve" font-family="AvenirNext-Medium" font-size="34.0" fill="#838686" transform="matrix(1.00, 0.00, -0.00, -1.00, 162.0, 366.0)">b</text><text xml:space="preserve" font-family="AvenirNext-Medium" font-size="34.0" fill="#838686" transform="matrix(1.00, 0.00, -0.00, -1.00, 183.6, 366.0)">:</text><text xml:space="preserve" font-family="AvenirNext-Medium" font-size="34.0" fill="#838686" transform="matrix(1.00, 0.00, -0.00, -1.00, 193.8, 366.0)"> </text><text xml:space="preserve" font-family="LucidaGrande-Bold" font-weight="bold" font-size="34.0" fill="#838686" transform="matrix(1.00, 0.00, -0.00, -1.00, 202.3, 366.0)"> </text><text xml:space="preserve" font-family="AvenirNext-Medium" font-size="34.0" fill="#34A4DA" transform="matrix(1.00, 0.00, -0.00, -1.00, 71.0, 320.0)">h</text><text xml:space="preserve" font-family="AvenirNext-Medium" font-size="34.0" fill="#34A4DA" transform="matrix(1.00, 0.00, -0.00, -1.00, 90.9, 320.0)">t</text><text xml:space="preserve" font-family="AvenirNext-Medium" font-size="34.0" fill="#34A4DA" transform="matrix(1.00, 0.00, -0.00, -1.00, 101.5, 320.0)">t</text><text xml:space="preserve" font-family="AvenirNext-Medium" font-size="34.0" fill="#34A4DA" transform="matrix(1.00, 0.00, -0.00, -1.00, 112.7, 320.0)">p</text><text xml:space="preserve" font-family="AvenirNext-Medium" font-size="34.0" fill="#34A4DA" transform="matrix(1.00, 0.00, -0.00, -1.00, 134.3, 320.0)">:</text><text xml:space="preserve" font-family="AvenirNext-Medium" font-size="34.0" fill="#34A4DA" transform="matrix(1.00, 0.00, -0.00, -1.00, 144.5, 320.0)">/</text><text xml:space="preserve" font-family="AvenirNext-Medium" font-size="34.0" fill="#34A4DA" transform="matrix(1.00, 0.00, -0.00, -1.00, 157.4, 320.0)">/</text><text xml:space="preserve" font-family="AvenirNext-Medium" font-size="34.0" fill="#34A4DA" transform="matrix(1.00, 0.00, -0.00, -1.00, 170.3, 320.0)">g</text><text xml:space="preserve" font-family="AvenirNext-Medium" font-size="34.0" fill="#34A4DA" transform="matrix(1.00, 0.00, -0.00, -1.00, 191.8, 320.0)">i</text><text xml:space="preserve" font-family="AvenirNext-Medium" font-size="34.0" fill="#34A4DA" transform="matrix(1.00, 0.00, -0.00, -1.00, 200.6, 320.0)">t</text><text xml:space="preserve" font-family="AvenirNext-Medium" font-size="34.0" fill="#34A4DA" transform="matrix(1.00, 0.00, -0.00, -1.00, 211.8, 320.0)">h</text><text xml:space="preserve" font-family="AvenirNext-Medium" font-size="34.0" fill="#34A4DA" transform="matrix(1.00, 0.00, -0.00, -1.00, 231.7, 320.0)">u</text><text xml:space="preserve" font-family="AvenirNext-Medium" font-size="34.0" fill="#34A4DA" transform="matrix(1.00, 0.00, -0.00, -1.00, 251.4, 320.0)">b</text><text xml:space="preserve" font-family="AvenirNext-Medium" font-size="34.0" fill="#34A4DA" transform="matrix(1.00, 0.00, -0.00, -1.00, 272.7, 320.0)">.</text><text xml:space="preserve" font-family="AvenirNext-Medium" font-size="34.0" fill="#34A4DA" transform="matrix(1.00, 0.00, -0.00, -1.00, 281.5, 320.0)">c</text><text xml:space="preserve" font-family="AvenirNext-Medium" font-size="34.0" fill="#34A4DA" transform="matrix(1.00, 0.00, -0.00, -1.00, 298.3, 320.0)">o</text><text xml:space="preserve" font-family="AvenirNext-Medium" font-size="34.0" fill="#34A4DA" transform="matrix(1.00, 0.00, -0.00, -1.00, 319.0, 320.0)">m</text><text xml:space="preserve" font-family="AvenirNext-Medium" font-size="34.0" fill="#34A4DA" transform="matrix(1.00, 0.00, -0.00, -1.00, 349.2, 320.0)">/</text><text xml:space="preserve" font-family="AvenirNext-Medium" font-size="34.0" fill="#34A4DA" transform="matrix(1.00, 0.00, -0.00, -1.00, 362.1, 320.0)">r</text><text xml:space="preserve" font-family="AvenirNext-Medium" font-size="34.0" fill="#34A4DA" transform="matrix(1.00, 0.00, -0.00, -1.00, 373.8, 320.0)">o</text><text xml:space="preserve" font-family="AvenirNext-Medium" font-size="34.0" fill="#34A4DA" transform="matrix(1.00, 0.00, -0.00, -1.00, 394.5, 320.0)">n</text><text xml:space="preserve" font-family="AvenirNext-Medium" font-size="34.0" fill="#34A4DA" transform="matrix(1.00, 0.00, -0.00, -1.00, 414.3, 320.0)">n</text><text xml:space="preserve" font-family="AvenirNext-Medium" font-size="34.0" fill="#34A4DA" transform="matrix(1.00, 0.00, -0.00, -1.00, 434.1, 320.0)">y</text><text xml:space="preserve" font-family="AvenirNext-Medium" font-size="34.0" fill="#34A4DA" transform="matrix(1.00, 0.00, -0.00, -1.00, 451.3, 320.0)">h</text><text xml:space="preserve" font-family="AvenirNext-Medium" font-size="34.0" fill="#34A4DA" transform="matrix(1.00, 0.00, -0.00, -1.00, 471.1, 320.0)">a</text><text xml:space="preserve" font-family="AvenirNext-Medium" font-size="34.0" fill="#34A4DA" transform="matrix(1.00, 0.00, -0.00, -1.00, 489.5, 320.0)">r</text><text xml:space="preserve" font-family="AvenirNext-Medium" font-size="34.0" fill="#34A4DA" transform="matrix(1.00, 0.00, -0.00, -1.00, 501.4, 320.0)">t</text><text xml:space="preserve" font-family="AvenirNext-Medium" font-size="34.0" fill="#34A4DA" transform="matrix(1.00, 0.00, -0.00, -1.00, 512.6, 320.0)">e</text><text xml:space="preserve" font-family="AvenirNext-Medium" font-size="34.0" fill="#34A4DA" transform="matrix(1.00, 0.00, -0.00, -1.00, 532.1, 320.0)">n</text><text xml:space="preserve" font-family="AvenirNext-Medium" font-size="34.0" fill="#34A4DA" transform="matrix(1.00, 0.00, -0.00, -1.00, 551.9, 320.0)">s</text><text xml:space="preserve" font-family="AvenirNext-Medium" font-size="34.0" fill="#34A4DA" transform="matrix(1.00, 0.00, -0.00, -1.00, 567.0, 320.0)">t</text><text xml:space="preserve" font-family="AvenirNext-Medium" font-size="34.0" fill="#34A4DA" transform="matrix(1.00, 0.00, -0.00, -1.00, 578.2, 320.0)">e</text><text xml:space="preserve" font-family="AvenirNext-Medium" font-size="34.0" fill="#34A4DA" transform="matrix(1.00, 0.00, -0.00, -1.00, 597.7, 320.0)">i</text><text xml:space="preserve" font-family="AvenirNext-Medium" font-size="34.0" fill="#34A4DA" transform="matrix(1.00, 0.00, -0.00, -1.00, 606.5, 320.0)">n</text><text xml:space="preserve" font-family="AvenirNext-Medium" font-size="34.0" fill="#34A4DA" transform="matrix(1.00, 0.00, -0.00, -1.00, 626.3, 320.0)">/</text><text xml:space="preserve" font-family="AvenirNext-Medium" font-size="34.0" fill="#34A4DA" transform="matrix(1.00, 0.00, -0.00, -1.00, 639.2, 320.0)">p</text><text xml:space="preserve" font-family="AvenirNext-Medium" font-size="34.0" fill="#34A4DA" transform="matrix(1.00, 0.00, -0.00, -1.00, 660.7, 320.0)">i</text><text xml:space="preserve" font-family="AvenirNext-Medium" font-size="34.0" fill="#34A4DA" transform="matrix(1.00, 0.00, -0.00, -1.00, 669.5, 320.0)">l</text><text xml:space="preserve" font-family="AvenirNext-Medium" font-size="34.0" fill="#34A4DA" transform="matrix(1.00, 0.00, -0.00, -1.00, 678.4, 320.0)">z</text><text xml:space="preserve" font-family="AvenirNext-Medium" font-size="34.0" fill="#34A4DA" transform="matrix(1.00, 0.00, -0.00, -1.00, 694.1, 320.0)">l</text><text xml:space="preserve" font-family="AvenirNext-Medium" font-size="34.0" fill="#34A4DA" transform="matrix(1.00, 0.00, -0.00, -1.00, 702.9, 320.0)">i</text><text xml:space="preserve" font-family="AvenirNext-Medium" font-size="34.0" fill="#34A4DA" transform="matrix(1.00, 0.00, -0.00, -1.00, 711.7, 320.0)">s</text><text xml:space="preserve" font-family="AvenirNext-Medium" font-size="34.0" fill="#34A4DA" transform="matrix(1.00, 0.00, -0.00, -1.00, 726.8, 320.0)">t</text><text xml:space="preserve" font-family="AvenirNext-Medium" font-size="34.0" fill="#34A4DA" transform="matrix(1.00, 0.00, -0.00, -1.00, 738.0, 320.0)">e</text><text xml:space="preserve" font-family="AvenirNext-Medium" font-size="34.0" fill="#34A4DA" transform="matrix(1.00, 0.00, -0.00, -1.00, 757.5, 320.0)">-</text><text xml:space="preserve" font-family="AvenirNext-Medium" font-size="34.0" fill="#34A4DA" transform="matrix(1.00, 0.00, -0.00, -1.00, 768.4, 320.0)">r</text><text xml:space="preserve" font-family="AvenirNext-Medium" font-size="34.0" fill="#34A4DA" transform="matrix(1.00, 0.00, -0.00, -1.00, 780.1, 320.0)">e</text><text xml:space="preserve" font-family="AvenirNext-Medium" font-size="34.0" fill="#34A4DA" transform="matrix(1.00, 0.00, -0.00, -1.00, 799.3, 320.0)">a</text><text xml:space="preserve" font-family="AvenirNext-Medium" font-size="34.0" fill="#34A4DA" transform="matrix(1.00, 0.00, -0.00, -1.00, 817.8, 320.0)">c</text><text xml:space="preserve" font-family="AvenirNext-Medium" font-size="34.0" fill="#34A4DA" transform="matrix(1.00, 0.00, -0.00, -1.00, 834.6, 320.0)">t</text><text xml:space="preserve" font-family="AvenirNext-Medium" font-size="34.0" fill="#34A4DA" transform="matrix(1.00, 0.00, -0.00, -1.00, 845.8, 320.0)">-</text><text xml:space="preserve" font-family="AvenirNext-Medium" font-size="34.0" fill="#34A4DA" transform="matrix(1.00, 0.00, -0.00, -1.00, 856.6, 320.0)">n</text><text xml:space="preserve" font-family="AvenirNext-Medium" font-size="34.0" fill="#34A4DA" transform="matrix(1.00, 0.00, -0.00, -1.00, 876.4, 320.0)">a</text><text xml:space="preserve" font-family="AvenirNext-Medium" font-size="34.0" fill="#34A4DA" transform="matrix(1.00, 0.00, -0.00, -1.00, 894.5, 320.0)">t</text><text xml:space="preserve" font-family="AvenirNext-Medium" font-size="34.0" fill="#34A4DA" transform="matrix(1.00, 0.00, -0.00, -1.00, 905.7, 320.0)">i</text><text xml:space="preserve" font-family="AvenirNext-Medium" font-size="34.0" fill="#34A4DA" transform="matrix(1.00, 0.00, -0.00, -1.00, 914.5, 320.0)">v</text><text xml:space="preserve" font-family="AvenirNext-Medium" font-size="34.0" fill="#34A4DA" transform="matrix(1.00, 0.00, -0.00, -1.00, 931.6, 320.0)">e</text><text xml:space="preserve" font-family="AvenirNext-Medium" font-size="34.0" fill="#34A4DA" transform="matrix(1.00, 0.00, -0.00, -1.00, 951.1, 320.0)">-</text><g><clipPath id="clip-11"><path d="M 70.0 316.0 L 962.0 316.0 L 962.0 319.7 L 70.0 319.7 Z M 70.0 316.0 "></path></clipPath><g clip-path="url(#clip-11)"><path d="M 39.0 234.1 L 930.0 234.1 " fill="none" stroke="#34A4DA" stroke-width="1.70" stroke-miterlimit="0.00" transform="matrix(1.00, 0.00, 0.00, -1.00, 32.0, 552.0)"></path></g></g><text xml:space="preserve" font-family="AvenirNext-Medium" font-size="34.0" fill="#34A4DA" transform="matrix(1.00, 0.00, -0.00, -1.00, 71.0, 274.0)">r</text><text xml:space="preserve" font-family="AvenirNext-Medium" font-size="34.0" fill="#34A4DA" transform="matrix(1.00, 0.00, -0.00, -1.00, 82.7, 274.0)">e</text><text xml:space="preserve" font-family="AvenirNext-Medium" font-size="34.0" fill="#34A4DA" transform="matrix(1.00, 0.00, -0.00, -1.00, 102.2, 274.0)">d</text><text xml:space="preserve" font-family="AvenirNext-Medium" font-size="34.0" fill="#34A4DA" transform="matrix(1.00, 0.00, -0.00, -1.00, 123.8, 274.0)">u</text><text xml:space="preserve" font-family="AvenirNext-Medium" font-size="34.0" fill="#34A4DA" transform="matrix(1.00, 0.00, -0.00, -1.00, 143.6, 274.0)">x</text><text xml:space="preserve" font-family="AvenirNext-Medium" font-size="34.0" fill="#838686" transform="matrix(1.00, 0.00, -0.00, -1.00, 160.9, 274.0)"> </text><text xml:space="preserve" font-family="AvenirNext-Medium" font-size="34.0" fill="#838686" transform="matrix(1.00, 0.00, -0.00, -1.00, 169.4, 274.0)"> </text><g><clipPath id="clip-12"><path d="M 70.0 270.0 L 160.9 270.0 L 160.9 273.7 L 70.0 273.7 Z M 70.0 270.0 "></path></clipPath><g clip-path="url(#clip-12)"><path d="M 39.0 280.1 L 128.9 280.1 " fill="none" stroke="#34A4DA" stroke-width="1.70" stroke-miterlimit="0.00" transform="matrix(1.00, 0.00, 0.00, -1.00, 32.0, 552.0)"></path></g></g><text xml:space="preserve" font-family="LucidaGrande" font-size="35.7" fill="#34A4DA" transform="matrix(1.00, 0.00, -0.00, -1.00, 36.0, 197.0)">▸</text><text xml:space="preserve" font-family="AvenirNext-Medium" font-size="34.0" fill="#838686" transform="matrix(1.00, 0.00, -0.00, -1.00, 71.0, 200.0)">W</text><text xml:space="preserve" font-family="AvenirNext-Medium" font-size="34.0" fill="#838686" transform="matrix(1.00, 0.00, -0.00, -1.00, 103.4, 200.0)">e</text><text xml:space="preserve" font-family="AvenirNext-Medium" font-size="34.0" fill="#838686" transform="matrix(1.00, 0.00, -0.00, -1.00, 122.9, 200.0)">b</text><text xml:space="preserve" font-family="AvenirNext-Medium" font-size="34.0" fill="#838686" transform="matrix(1.00, 0.00, -0.00, -1.00, 144.5, 200.0)">s</text><text xml:space="preserve" font-family="AvenirNext-Medium" font-size="34.0" fill="#838686" transform="matrix(1.00, 0.00, -0.00, -1.00, 159.6, 200.0)">e</text><text xml:space="preserve" font-family="AvenirNext-Medium" font-size="34.0" fill="#838686" transform="matrix(1.00, 0.00, -0.00, -1.00, 179.1, 200.0)">i</text><text xml:space="preserve" font-family="AvenirNext-Medium" font-size="34.0" fill="#838686" transform="matrix(1.00, 0.00, -0.00, -1.00, 187.9, 200.0)">t</text><text xml:space="preserve" font-family="AvenirNext-Medium" font-size="34.0" fill="#838686" transform="matrix(1.00, 0.00, -0.00, -1.00, 199.0, 200.0)">e</text><text xml:space="preserve" font-family="AvenirNext-Medium" font-size="34.0" fill="#838686" transform="matrix(1.00, 0.00, -0.00, -1.00, 218.5, 200.0)">:</text><text xml:space="preserve" font-family="AvenirNext-Medium" font-size="34.0" fill="#838686" transform="matrix(1.00, 0.00, -0.00, -1.00, 228.7, 200.0)"> </text><text xml:space="preserve" font-family="LucidaGrande-Bold" font-weight="bold" font-size="34.0" fill="#838686" transform="matrix(1.00, 0.00, -0.00, -1.00, 237.2, 200.0)"> </text><text xml:space="preserve" font-family="AvenirNext-Medium" font-size="34.0" fill="#34A4DA" transform="matrix(1.00, 0.00, -0.00, -1.00, 71.0, 154.0)">h</text><text xml:space="preserve" font-family="AvenirNext-Medium" font-size="34.0" fill="#34A4DA" transform="matrix(1.00, 0.00, -0.00, -1.00, 90.9, 154.0)">t</text><text xml:space="preserve" font-family="AvenirNext-Medium" font-size="34.0" fill="#34A4DA" transform="matrix(1.00, 0.00, -0.00, -1.00, 101.5, 154.0)">t</text><text xml:space="preserve" font-family="AvenirNext-Medium" font-size="34.0" fill="#34A4DA" transform="matrix(1.00, 0.00, -0.00, -1.00, 112.7, 154.0)">p</text><text xml:space="preserve" font-family="AvenirNext-Medium" font-size="34.0" fill="#34A4DA" transform="matrix(1.00, 0.00, -0.00, -1.00, 134.3, 154.0)">:</text><text xml:space="preserve" font-family="AvenirNext-Medium" font-size="34.0" fill="#34A4DA" transform="matrix(1.00, 0.00, -0.00, -1.00, 144.5, 154.0)">/</text><text xml:space="preserve" font-family="AvenirNext-Medium" font-size="34.0" fill="#34A4DA" transform="matrix(1.00, 0.00, -0.00, -1.00, 157.4, 154.0)">/</text><text xml:space="preserve" font-family="AvenirNext-Medium" font-size="34.0" fill="#34A4DA" transform="matrix(1.00, 0.00, -0.00, -1.00, 170.3, 154.0)">b</text><text xml:space="preserve" font-family="AvenirNext-Medium" font-size="34.0" fill="#34A4DA" transform="matrix(1.00, 0.00, -0.00, -1.00, 191.9, 154.0)">l</text><text xml:space="preserve" font-family="AvenirNext-Medium" font-size="34.0" fill="#34A4DA" transform="matrix(1.00, 0.00, -0.00, -1.00, 200.8, 154.0)">o</text><text xml:space="preserve" font-family="AvenirNext-Medium" font-size="34.0" fill="#34A4DA" transform="matrix(1.00, 0.00, -0.00, -1.00, 221.5, 154.0)">g</text><text xml:space="preserve" font-family="AvenirNext-Medium" font-size="34.0" fill="#34A4DA" transform="matrix(1.00, 0.00, -0.00, -1.00, 243.0, 154.0)">.</text><text xml:space="preserve" font-family="AvenirNext-Medium" font-size="34.0" fill="#34A4DA" transform="matrix(1.00, 0.00, -0.00, -1.00, 251.8, 154.0)">r</text><text xml:space="preserve" font-family="AvenirNext-Medium" font-size="34.0" fill="#34A4DA" transform="matrix(1.00, 0.00, -0.00, -1.00, 264.2, 154.0)">h</text><text xml:space="preserve" font-family="AvenirNext-Medium" font-size="34.0" fill="#34A4DA" transform="matrix(1.00, 0.00, -0.00, -1.00, 284.0, 154.0)">-</text><text xml:space="preserve" font-family="AvenirNext-Medium" font-size="34.0" fill="#34A4DA" transform="matrix(1.00, 0.00, -0.00, -1.00, 294.9, 154.0)">ﬂ</text><text xml:space="preserve" font-family="AvenirNext-Medium" font-size="34.0" fill="#34A4DA" transform="matrix(1.00, 0.00, -0.00, -1.00, 314.4, 154.0)">o</text><text xml:space="preserve" font-family="AvenirNext-Medium" font-size="34.0" fill="#34A4DA" transform="matrix(1.00, 0.00, -0.00, -1.00, 335.1, 154.0)">w</text><text xml:space="preserve" font-family="AvenirNext-Medium" font-size="34.0" fill="#34A4DA" transform="matrix(1.00, 0.00, -0.00, -1.00, 360.2, 154.0)">.</text><text xml:space="preserve" font-family="AvenirNext-Medium" font-size="34.0" fill="#34A4DA" transform="matrix(1.00, 0.00, -0.00, -1.00, 369.0, 154.0)">d</text><text xml:space="preserve" font-family="AvenirNext-Medium" font-size="34.0" fill="#34A4DA" transform="matrix(1.00, 0.00, -0.00, -1.00, 390.6, 154.0)">e</text><text xml:space="preserve" font-family="AvenirNext-Medium" font-size="34.0" fill="#34A4DA" transform="matrix(1.00, 0.00, -0.00, -1.00, 410.1, 154.0)">/</text><text xml:space="preserve" font-family="AvenirNext-Medium" font-size="34.0" fill="#34A4DA" transform="matrix(1.00, 0.00, -0.00, -1.00, 423.0, 154.0)">p</text><text xml:space="preserve" font-family="AvenirNext-Medium" font-size="34.0" fill="#34A4DA" transform="matrix(1.00, 0.00, -0.00, -1.00, 444.6, 154.0)">i</text><text xml:space="preserve" font-family="AvenirNext-Medium" font-size="34.0" fill="#34A4DA" transform="matrix(1.00, 0.00, -0.00, -1.00, 453.4, 154.0)">l</text><text xml:space="preserve" font-family="AvenirNext-Medium" font-size="34.0" fill="#34A4DA" transform="matrix(1.00, 0.00, -0.00, -1.00, 462.2, 154.0)">z</text><text xml:space="preserve" font-family="AvenirNext-Medium" font-size="34.0" fill="#34A4DA" transform="matrix(1.00, 0.00, -0.00, -1.00, 477.9, 154.0)">l</text><text xml:space="preserve" font-family="AvenirNext-Medium" font-size="34.0" fill="#34A4DA" transform="matrix(1.00, 0.00, -0.00, -1.00, 486.8, 154.0)">i</text><text xml:space="preserve" font-family="AvenirNext-Medium" font-size="34.0" fill="#34A4DA" transform="matrix(1.00, 0.00, -0.00, -1.00, 495.6, 154.0)">s</text><text xml:space="preserve" font-family="AvenirNext-Medium" font-size="34.0" fill="#34A4DA" transform="matrix(1.00, 0.00, -0.00, -1.00, 510.7, 154.0)">t</text><text xml:space="preserve" font-family="AvenirNext-Medium" font-size="34.0" fill="#34A4DA" transform="matrix(1.00, 0.00, -0.00, -1.00, 521.9, 154.0)">e</text><text xml:space="preserve" font-family="AvenirNext-Medium" font-size="34.0" fill="#34A4DA" transform="matrix(1.00, 0.00, -0.00, -1.00, 541.4, 154.0)">-</text><text xml:space="preserve" font-family="AvenirNext-Medium" font-size="34.0" fill="#34A4DA" transform="matrix(1.00, 0.00, -0.00, -1.00, 552.2, 154.0)">r</text><text xml:space="preserve" font-family="AvenirNext-Medium" font-size="34.0" fill="#34A4DA" transform="matrix(1.00, 0.00, -0.00, -1.00, 563.9, 154.0)">e</text><text xml:space="preserve" font-family="AvenirNext-Medium" font-size="34.0" fill="#34A4DA" transform="matrix(1.00, 0.00, -0.00, -1.00, 583.2, 154.0)">a</text><text xml:space="preserve" font-family="AvenirNext-Medium" font-size="34.0" fill="#34A4DA" transform="matrix(1.00, 0.00, -0.00, -1.00, 601.6, 154.0)">c</text><text xml:space="preserve" font-family="AvenirNext-Medium" font-size="34.0" fill="#34A4DA" transform="matrix(1.00, 0.00, -0.00, -1.00, 618.4, 154.0)">t</text><text xml:space="preserve" font-family="AvenirNext-Medium" font-size="34.0" fill="#34A4DA" transform="matrix(1.00, 0.00, -0.00, -1.00, 629.6, 154.0)">-</text><text xml:space="preserve" font-family="AvenirNext-Medium" font-size="34.0" fill="#34A4DA" transform="matrix(1.00, 0.00, -0.00, -1.00, 640.5, 154.0)">n</text><text xml:space="preserve" font-family="AvenirNext-Medium" font-size="34.0" fill="#34A4DA" transform="matrix(1.00, 0.00, -0.00, -1.00, 660.3, 154.0)">a</text><text xml:space="preserve" font-family="AvenirNext-Medium" font-size="34.0" fill="#34A4DA" transform="matrix(1.00, 0.00, -0.00, -1.00, 678.4, 154.0)">t</text><text xml:space="preserve" font-family="AvenirNext-Medium" font-size="34.0" fill="#34A4DA" transform="matrix(1.00, 0.00, -0.00, -1.00, 689.6, 154.0)">i</text><text xml:space="preserve" font-family="AvenirNext-Medium" font-size="34.0" fill="#34A4DA" transform="matrix(1.00, 0.00, -0.00, -1.00, 698.4, 154.0)">v</text><text xml:space="preserve" font-family="AvenirNext-Medium" font-size="34.0" fill="#34A4DA" transform="matrix(1.00, 0.00, -0.00, -1.00, 715.5, 154.0)">e</text><text xml:space="preserve" font-family="AvenirNext-Medium" font-size="34.0" fill="#34A4DA" transform="matrix(1.00, 0.00, -0.00, -1.00, 735.0, 154.0)">-</text><text xml:space="preserve" font-family="AvenirNext-Medium" font-size="34.0" fill="#34A4DA" transform="matrix(1.00, 0.00, -0.00, -1.00, 745.9, 154.0)">r</text><text xml:space="preserve" font-family="AvenirNext-Medium" font-size="34.0" fill="#34A4DA" transform="matrix(1.00, 0.00, -0.00, -1.00, 757.6, 154.0)">e</text><text xml:space="preserve" font-family="AvenirNext-Medium" font-size="34.0" fill="#34A4DA" transform="matrix(1.00, 0.00, -0.00, -1.00, 777.0, 154.0)">d</text><text xml:space="preserve" font-family="AvenirNext-Medium" font-size="34.0" fill="#34A4DA" transform="matrix(1.00, 0.00, -0.00, -1.00, 798.6, 154.0)">u</text><text xml:space="preserve" font-family="AvenirNext-Medium" font-size="34.0" fill="#34A4DA" transform="matrix(1.00, 0.00, -0.00, -1.00, 818.4, 154.0)">x</text><text xml:space="preserve" font-family="AvenirNext-Medium" font-size="34.0" fill="#838686" transform="matrix(1.00, 0.00, -0.00, -1.00, 835.8, 154.0)"> </text><g><clipPath id="clip-13"><path d="M 70.0 150.0 L 835.8 150.0 L 835.8 153.7 L 70.0 153.7 Z M 70.0 150.0 "></path></clipPath><g clip-path="url(#clip-13)"><path d="M 39.0 400.1 L 803.8 400.1 " fill="none" stroke="#34A4DA" stroke-width="1.70" stroke-miterlimit="0.00" transform="matrix(1.00, 0.00, 0.00, -1.00, 32.0, 552.0)"></path></g></g></g></svg>