<?xml version="1.0" encoding="UTF-8" standalone="no"?><svg xmlns="http://www.w3.org/2000/svg" xmlns:xlink="http://www.w3.org/1999/xlink" clip-rule="evenodd" stroke-miterlimit="4.00" viewBox="0 0 1024 768"><desc>SVG generated by Keynote</desc><defs></defs><g transform="matrix(1.00, 0.00, -0.00, -1.00, 0.0, 768.0)"><path d="M 0.0 768.0 L 1024.0 768.0 L 1024.0 0.0 L 0.0 0.0 Z M 0.0 768.0 " fill="#FFFFFF"></path><path d="M 0.0 0.0 L 960.0 0.0 " fill="none" stroke="#A6AAA8" stroke-width="3.00" transform="matrix(1.00, 0.00, 0.00, -1.00, 32.0, 284.5)"></path><text xml:space="preserve" font-family="DINCondensed-Bold" font-weight="bold" font-size="110.5" fill="#34A4DA" transform="matrix(1.00, 0.00, -0.00, -1.00, 36.0, 74.0)">P</text><text xml:space="preserve" font-family="DINCondensed-Bold" font-weight="bold" font-size="110.5" fill="#34A4DA" transform="matrix(1.00, 0.00, -0.00, -1.00, 76.9, 74.0)">A</text><text xml:space="preserve" font-family="DINCondensed-Bold" font-weight="bold" font-size="110.5" fill="#34A4DA" transform="matrix(1.00, 0.00, -0.00, -1.00, 121.9, 74.0)">P</text><text xml:space="preserve" font-family="DINCondensed-Bold" font-weight="bold" font-size="110.5" fill="#34A4DA" transform="matrix(1.00, 0.00, -0.00, -1.00, 162.7, 74.0)">A</text><text xml:space="preserve" font-family="DINCondensed-Bold" font-weight="bold" font-size="110.5" fill="#34A4DA" transform="matrix(1.00, 0.00, -0.00, -1.00, 207.7, 74.0)"> </text><text xml:space="preserve" font-family="DINCondensed-Bold" font-weight="bold" font-size="110.5" fill="#34A4DA" transform="matrix(1.00, 0.00, -0.00, -1.00, 228.3, 74.0)">T</text><text xml:space="preserve" font-family="DINCondensed-Bold" font-weight="bold" font-size="110.5" fill="#34A4DA" transform="matrix(1.00, 0.00, -0.00, -1.00, 265.0, 74.0)">I</text><text xml:space="preserve" font-family="DINCondensed-Bold" font-weight="bold" font-size="110.5" fill="#34A4DA" transform="matrix(1.00, 0.00, -0.00, -1.00, 287.5, 74.0)">M</text><text xml:space="preserve" font-family="DINCondensed-Bold" font-weight="bold" font-size="110.5" fill="#34A4DA" transform="matrix(1.00, 0.00, -0.00, -1.00, 348.9, 74.0)">E</text><text xml:space="preserve" font-family="DINCondensed-Bold" font-weight="bold" font-size="110.5" fill="#34A4DA" transform="matrix(1.00, 0.00, -0.00, -1.00, 389.8, 74.0)">!</text><text xml:space="preserve" font-family="DINCondensed-Bold" font-weight="bold" font-size="110.5" fill="#34A4DA" transform="matrix(1.00, 0.00, -0.00, -1.00, 416.3, 74.0)"> </text><text xml:space="preserve" font-family="DINCondensed-Bold" font-weight="bold" font-size="65.0" fill="#34A4DA" transform="matrix(1.00, 0.00, -0.00, -1.00, 436.9, 74.0)">W</text><text xml:space="preserve" font-family="DINCondensed-Bold" font-weight="bold" font-size="65.0" fill="#34A4DA" transform="matrix(1.00, 0.00, -0.00, -1.00, 475.4, 74.0)">E</text><text xml:space="preserve" font-family="DINCondensed-Bold" font-weight="bold" font-size="65.0" fill="#34A4DA" transform="matrix(1.00, 0.00, -0.00, -1.00, 499.5, 74.0)">N</text><text xml:space="preserve" font-family="DINCondensed-Bold" font-weight="bold" font-size="65.0" fill="#34A4DA" transform="matrix(1.00, 0.00, -0.00, -1.00, 528.3, 74.0)">N</text><text xml:space="preserve" font-family="DINCondensed-Bold" font-weight="bold" font-size="65.0" fill="#34A4DA" transform="matrix(1.00, 0.00, -0.00, -1.00, 557.2, 74.0)"> </text><text xml:space="preserve" font-family="DINCondensed-Bold" font-weight="bold" font-size="65.0" fill="#34A4DA" transform="matrix(1.00, 0.00, -0.00, -1.00, 569.3, 74.0)">D</text><text xml:space="preserve" font-family="DINCondensed-Bold" font-weight="bold" font-size="65.0" fill="#34A4DA" transform="matrix(1.00, 0.00, -0.00, -1.00, 597.0, 74.0)">E</text><text xml:space="preserve" font-family="DINCondensed-Bold" font-weight="bold" font-size="65.0" fill="#34A4DA" transform="matrix(1.00, 0.00, -0.00, -1.00, 621.0, 74.0)">R</text><text xml:space="preserve" font-family="DINCondensed-Bold" font-weight="bold" font-size="65.0" fill="#34A4DA" transform="matrix(1.00, 0.00, -0.00, -1.00, 648.7, 74.0)"> </text><text xml:space="preserve" font-family="DINCondensed-Bold" font-weight="bold" font-size="65.0" fill="#34A4DA" transform="matrix(1.00, 0.00, -0.00, -1.00, 660.8, 74.0)">G</text><text xml:space="preserve" font-family="DINCondensed-Bold" font-weight="bold" font-size="65.0" fill="#34A4DA" transform="matrix(1.00, 0.00, -0.00, -1.00, 688.5, 74.0)">U</text><text xml:space="preserve" font-family="DINCondensed-Bold" font-weight="bold" font-size="65.0" fill="#34A4DA" transform="matrix(1.00, 0.00, -0.00, -1.00, 716.2, 74.0)">N</text><text xml:space="preserve" font-family="DINCondensed-Bold" font-weight="bold" font-size="65.0" fill="#34A4DA" transform="matrix(1.00, 0.00, -0.00, -1.00, 745.1, 74.0)">G</text><text xml:space="preserve" font-family="DINCondensed-Bold" font-weight="bold" font-size="65.0" fill="#34A4DA" transform="matrix(1.00, 0.00, -0.00, -1.00, 772.7, 74.0)"> </text><text xml:space="preserve" font-family="DINCondensed-Bold" font-weight="bold" font-size="65.0" fill="#34A4DA" transform="matrix(1.00, 0.00, -0.00, -1.00, 784.8, 74.0)">S</text><text xml:space="preserve" font-family="DINCondensed-Bold" font-weight="bold" font-size="65.0" fill="#34A4DA" transform="matrix(1.00, 0.00, -0.00, -1.00, 811.2, 74.0)">C</text><text xml:space="preserve" font-family="DINCondensed-Bold" font-weight="bold" font-size="65.0" fill="#34A4DA" transform="matrix(1.00, 0.00, -0.00, -1.00, 837.7, 74.0)">H</text><text xml:space="preserve" font-family="DINCondensed-Bold" font-weight="bold" font-size="65.0" fill="#34A4DA" transform="matrix(1.00, 0.00, -0.00, -1.00, 865.4, 74.0)">L</text><text xml:space="preserve" font-family="DINCondensed-Bold" font-weight="bold" font-size="65.0" fill="#34A4DA" transform="matrix(1.00, 0.00, -0.00, -1.00, 889.4, 74.0)">Ä</text><text xml:space="preserve" font-family="DINCondensed-Bold" font-weight="bold" font-size="65.0" fill="#34A4DA" transform="matrix(1.00, 0.00, -0.00, -1.00, 915.9, 74.0)">F</text><text xml:space="preserve" font-family="DINCondensed-Bold" font-weight="bold" font-size="65.0" fill="#34A4DA" transform="matrix(1.00, 0.00, -0.00, -1.00, 939.9, 74.0)">T</text><text xml:space="preserve" font-family="DINCondensed-Bold" font-weight="bold" font-size="65.0" fill="#34A4DA" transform="matrix(1.00, 0.00, -0.00, -1.00, 955.5, 74.0)">.</text><text xml:space="preserve" font-family="DINCondensed-Bold" font-weight="bold" font-size="65.0" fill="#34A4DA" transform="matrix(1.00, 0.00, -0.00, -1.00, 967.6, 74.0)">.</text><image xlink:href="0FE06B3B84639157C7F5A0B32AE15EF7.jpeg" width="1024.00" height="576.00" transform="matrix(1.00, 0.00, -0.00, -1.00, 0.0, 770.0)"></image></g></svg>